<mxfile host="app.diagrams.net" modified="2023-10-09T17:59:13.626Z" agent="Mozilla/5.0 (Windows NT 10.0; Win64; x64) AppleWebKit/537.36 (KHTML, like Gecko) Chrome/114.0.0.0 Safari/537.36" etag="c7AR0daMI15bB1fcSW-Q" version="22.0.4" type="device">
  <diagram name="Página-1" id="51-JuaURY5V9hbzx1IEg">
    <mxGraphModel dx="860" dy="655" grid="1" gridSize="10" guides="1" tooltips="1" connect="1" arrows="1" fold="1" page="1" pageScale="1" pageWidth="827" pageHeight="1169" math="0" shadow="0">
      <root>
        <mxCell id="0" />
        <mxCell id="1" parent="0" />
        <mxCell id="OAzlP0VAVIPUutrbwX8A-1" value="ESPECIES" style="swimlane;childLayout=stackLayout;horizontal=1;startSize=50;horizontalStack=0;rounded=1;fontSize=14;fontStyle=0;strokeWidth=2;resizeParent=0;resizeLast=1;shadow=0;dashed=0;align=center;arcSize=4;whiteSpace=wrap;html=1;" parent="1" vertex="1">
          <mxGeometry x="110" y="210" width="160" height="120" as="geometry" />
        </mxCell>
        <mxCell id="OAzlP0VAVIPUutrbwX8A-2" value="&lt;u&gt;Denominación C&lt;/u&gt;&lt;br&gt;nombre&lt;br&gt;descripción&lt;br&gt;foto" style="align=left;strokeColor=none;fillColor=none;spacingLeft=4;fontSize=12;verticalAlign=top;resizable=0;rotatable=0;part=1;html=1;" parent="OAzlP0VAVIPUutrbwX8A-1" vertex="1">
          <mxGeometry y="50" width="160" height="70" as="geometry" />
        </mxCell>
        <mxCell id="OAzlP0VAVIPUutrbwX8A-3" value="HÁBITAT" style="swimlane;childLayout=stackLayout;horizontal=1;startSize=50;horizontalStack=0;rounded=1;fontSize=14;fontStyle=0;strokeWidth=2;resizeParent=0;resizeLast=1;shadow=0;dashed=0;align=center;arcSize=4;whiteSpace=wrap;html=1;" parent="1" vertex="1">
          <mxGeometry x="110" y="510" width="160" height="120" as="geometry" />
        </mxCell>
        <mxCell id="OAzlP0VAVIPUutrbwX8A-4" value="&lt;u&gt;Nombre&lt;/u&gt;&lt;br&gt;clima&lt;br&gt;vegetación&lt;br&gt;" style="align=left;strokeColor=none;fillColor=none;spacingLeft=4;fontSize=12;verticalAlign=top;resizable=0;rotatable=0;part=1;html=1;" parent="OAzlP0VAVIPUutrbwX8A-3" vertex="1">
          <mxGeometry y="50" width="160" height="70" as="geometry" />
        </mxCell>
        <mxCell id="OAzlP0VAVIPUutrbwX8A-5" value="" style="swimlane;childLayout=stackLayout;horizontal=1;startSize=0;horizontalStack=0;rounded=1;fontSize=14;fontStyle=0;strokeWidth=2;resizeParent=0;resizeLast=1;shadow=0;dashed=0;align=center;arcSize=4;whiteSpace=wrap;html=1;" parent="1" vertex="1">
          <mxGeometry x="530" y="210" width="160" height="120" as="geometry" />
        </mxCell>
        <mxCell id="OAzlP0VAVIPUutrbwX8A-8" value="EJEMPLAR" style="shape=ext;margin=3;double=1;whiteSpace=wrap;html=1;align=center;" parent="OAzlP0VAVIPUutrbwX8A-5" vertex="1">
          <mxGeometry width="160" height="40" as="geometry" />
        </mxCell>
        <mxCell id="OAzlP0VAVIPUutrbwX8A-6" value="&lt;u&gt;Nombre propio&lt;br&gt;Denominación C&lt;br&gt;&lt;/u&gt;año nacimiento&lt;br&gt;decripción" style="align=left;strokeColor=none;fillColor=none;spacingLeft=4;fontSize=12;verticalAlign=top;resizable=0;rotatable=0;part=1;html=1;" parent="OAzlP0VAVIPUutrbwX8A-5" vertex="1">
          <mxGeometry y="40" width="160" height="80" as="geometry" />
        </mxCell>
        <mxCell id="OAzlP0VAVIPUutrbwX8A-10" value="RECORRIDOS" style="swimlane;childLayout=stackLayout;horizontal=1;startSize=50;horizontalStack=0;rounded=1;fontSize=14;fontStyle=0;strokeWidth=2;resizeParent=0;resizeLast=1;shadow=0;dashed=0;align=center;arcSize=4;whiteSpace=wrap;html=1;" parent="1" vertex="1">
          <mxGeometry x="530" y="510" width="160" height="120" as="geometry" />
        </mxCell>
        <mxCell id="OAzlP0VAVIPUutrbwX8A-11" value="&lt;u&gt;Código R&lt;br&gt;&lt;/u&gt;duración&lt;br&gt;longitud&lt;br&gt;nº máximo personas&lt;br&gt;" style="align=left;strokeColor=none;fillColor=none;spacingLeft=4;fontSize=12;verticalAlign=top;resizable=0;rotatable=0;part=1;html=1;" parent="OAzlP0VAVIPUutrbwX8A-10" vertex="1">
          <mxGeometry y="50" width="160" height="70" as="geometry" />
        </mxCell>
        <mxCell id="OAzlP0VAVIPUutrbwX8A-12" value="" style="endArrow=none;html=1;rounded=0;entryX=0;entryY=0.25;entryDx=0;entryDy=0;" parent="1" source="OAzlP0VAVIPUutrbwX8A-1" target="OAzlP0VAVIPUutrbwX8A-6" edge="1">
          <mxGeometry relative="1" as="geometry">
            <mxPoint x="330" y="390" as="sourcePoint" />
            <mxPoint x="490" y="390" as="targetPoint" />
          </mxGeometry>
        </mxCell>
        <mxCell id="OAzlP0VAVIPUutrbwX8A-13" value="TIENEN&lt;br&gt;NxM" style="shape=rhombus;perimeter=rhombusPerimeter;whiteSpace=wrap;html=1;align=center;" parent="1" vertex="1">
          <mxGeometry x="130" y="390" width="120" height="60" as="geometry" />
        </mxCell>
        <mxCell id="OAzlP0VAVIPUutrbwX8A-14" value="" style="endArrow=none;html=1;rounded=0;" parent="1" source="OAzlP0VAVIPUutrbwX8A-1" target="OAzlP0VAVIPUutrbwX8A-13" edge="1">
          <mxGeometry relative="1" as="geometry">
            <mxPoint x="330" y="390" as="sourcePoint" />
            <mxPoint x="490" y="390" as="targetPoint" />
          </mxGeometry>
        </mxCell>
        <mxCell id="OAzlP0VAVIPUutrbwX8A-15" value="" style="endArrow=none;html=1;rounded=0;" parent="1" source="OAzlP0VAVIPUutrbwX8A-13" target="OAzlP0VAVIPUutrbwX8A-3" edge="1">
          <mxGeometry relative="1" as="geometry">
            <mxPoint x="200" y="340" as="sourcePoint" />
            <mxPoint x="200" y="400" as="targetPoint" />
          </mxGeometry>
        </mxCell>
        <mxCell id="OAzlP0VAVIPUutrbwX8A-16" value="" style="endArrow=none;html=1;rounded=0;" parent="1" source="OAzlP0VAVIPUutrbwX8A-18" target="OAzlP0VAVIPUutrbwX8A-10" edge="1">
          <mxGeometry relative="1" as="geometry">
            <mxPoint x="330" y="390" as="sourcePoint" />
            <mxPoint x="490" y="390" as="targetPoint" />
          </mxGeometry>
        </mxCell>
        <mxCell id="OAzlP0VAVIPUutrbwX8A-17" value="" style="endArrow=none;html=1;rounded=0;" parent="1" source="OAzlP0VAVIPUutrbwX8A-3" target="OAzlP0VAVIPUutrbwX8A-18" edge="1">
          <mxGeometry relative="1" as="geometry">
            <mxPoint x="270" y="570" as="sourcePoint" />
            <mxPoint x="520" y="570" as="targetPoint" />
          </mxGeometry>
        </mxCell>
        <mxCell id="OAzlP0VAVIPUutrbwX8A-18" value="TIENE" style="shape=rhombus;perimeter=rhombusPerimeter;whiteSpace=wrap;html=1;align=center;" parent="1" vertex="1">
          <mxGeometry x="340" y="540" width="120" height="60" as="geometry" />
        </mxCell>
        <mxCell id="OAzlP0VAVIPUutrbwX8A-19" value="Orden" style="ellipse;whiteSpace=wrap;html=1;align=center;" parent="1" vertex="1">
          <mxGeometry x="350" y="630" width="100" height="40" as="geometry" />
        </mxCell>
        <mxCell id="OAzlP0VAVIPUutrbwX8A-20" value="" style="endArrow=none;html=1;rounded=0;" parent="1" source="OAzlP0VAVIPUutrbwX8A-18" target="OAzlP0VAVIPUutrbwX8A-19" edge="1">
          <mxGeometry relative="1" as="geometry">
            <mxPoint x="350" y="430" as="sourcePoint" />
            <mxPoint x="510" y="430" as="targetPoint" />
          </mxGeometry>
        </mxCell>
        <mxCell id="OAzlP0VAVIPUutrbwX8A-21" value="(1,n)" style="text;html=1;align=center;verticalAlign=middle;resizable=0;points=[];autosize=1;strokeColor=none;fillColor=none;" parent="1" vertex="1">
          <mxGeometry x="180" y="350" width="50" height="30" as="geometry" />
        </mxCell>
        <mxCell id="OAzlP0VAVIPUutrbwX8A-22" value="(1,n)" style="text;html=1;align=center;verticalAlign=middle;resizable=0;points=[];autosize=1;strokeColor=none;fillColor=none;" parent="1" vertex="1">
          <mxGeometry x="180" y="470" width="50" height="30" as="geometry" />
        </mxCell>
        <mxCell id="OAzlP0VAVIPUutrbwX8A-23" value="(1,n)" style="text;html=1;align=center;verticalAlign=middle;resizable=0;points=[];autosize=1;strokeColor=none;fillColor=none;" parent="1" vertex="1">
          <mxGeometry x="280" y="540" width="50" height="30" as="geometry" />
        </mxCell>
        <mxCell id="OAzlP0VAVIPUutrbwX8A-24" value="(1,n)" style="text;html=1;align=center;verticalAlign=middle;resizable=0;points=[];autosize=1;strokeColor=none;fillColor=none;" parent="1" vertex="1">
          <mxGeometry x="470" y="540" width="50" height="30" as="geometry" />
        </mxCell>
      </root>
    </mxGraphModel>
  </diagram>
</mxfile>
